#!OML:ASF F:\VICON\USERDATA\INSTALL\rory3\rory3.ASF
:FULLY-SPECIFIED
:DEGREES
149
root -0.726453 17.9127 3.84006 0.653887 -43.6101 5.20711
lowerback 20.6728 3.50743 -8.03381
upperback 4.93697 2.43533 -3.39771
thorax -6.34043 1.18801 0.261873
lowerneck -7.93887 -3.00171 -8.18551
upperneck -6.61798 -3.38978 3.46215
head -0.533152 -1.56235 2.44147
rclavicle -1.82882e-014 -3.97569e-015
rhumerus -14.4511 28.4454 -92.9121
rradius 38.0743
rwrist 28.9221
rhand -15.1091 -1.75874
rfingers 7.12502
rthumb 11.0595 -31.4474
lclavicle -1.82882e-014 -3.97569e-015
lhumerus -24.9317 -42.0277 95.4255
lradius 42.7141
lwrist -7.53325
lhand -3.42 36.5766
lfingers 7.12502
lthumb 22.3108 65.3085
rfemur -40.1189 0.230754 8.23714
rtibia 74.3581
rfoot -3.74582 11.25
rtoes -12.9402
lfemur -32.1729 9.63114 -20.8368
ltibia 40.045
lfoot -9.19185 8.03339
ltoes 1.84433
150
root -0.747654 17.921 3.86156 1.12841 -43.1452 4.85653
lowerback 20.8891 3.54755 -7.91148
upperback 4.98594 2.50987 -3.19127
thorax -6.40961 1.22457 0.389001
lowerneck -7.79565 -3.0979 -8.36822
upperneck -6.38028 -3.51005 3.57641
head -0.467979 -1.62222 2.50971
rclavicle -1.39547e-013 4.53229e-014
rhumerus -15.4055 30.6991 -93.969
rradius 36.049
rwrist 29.2768
rhand -14.4142 -2.04364
rfingers 7.12502
rthumb 11.7297 -31.6952
lclavicle -1.39547e-013 4.53229e-014
lhumerus -24.5399 -41.7928 95.3716
lradius 42.7866
lwrist -6.56559
lhand -3.03188 36.8208
lfingers 7.12502
lthumb 22.6834 65.5077
rfemur -41.1211 -0.298237 8.3725
rtibia 74.3225
rfoot -5.72187 8.34504
rtoes -14.9505
lfemur -32.3823 9.29936 -20.6241
ltibia 39.9865
lfoot -9.20346 7.9918
ltoes 1.48411
151
root -0.770754 17.9353 3.88482 1.4758 -42.6502 4.67351
lowerback 21.0543 3.53092 -7.87578
upperback 5.02846 2.49565 -3.01898
thorax -6.45471 1.21889 0.553607
lowerneck -7.47188 -3.1349 -8.58819
upperneck -6.32283 -3.56417 3.76693
head -0.492787 -1.64691 2.61739
rclavicle 5.725e-014 5.56597e-014
rhumerus -16.4075 32.3375 -94.9993
rradius 34.752
rwrist 31.2417
rhand -12.2086 -2.03233
rfingers 7.12502
rthumb 13.856 -31.5508
lclavicle 5.725e-014 5.56597e-014
lhumerus -24.2903 -41.0989 95.3227
lradius 42.991
lwrist -5.83965
lhand -4.11631 37.2151
lfingers 7.12502
lthumb 21.6423 66.0256
rfemur -41.96 -0.844394 8.34438
rtibia 74.0532
rfoot -7.28241 5.41021
rtoes -16.5392
lfemur -32.5294 8.98178 -20.5412
ltibia 39.9002
lfoot -9.18802 7.90474
ltoes 1.29075
152
root -0.79314 17.9515 3.91133 1.87288 -42.1615 4.4866
lowerback 21.151 3.52447 -7.71683
upperback 5.08401 2.52228 -2.93425
thorax -6.4441 1.22929 0.546948
lowerneck -7.21244 -3.21755 -8.56093
upperneck -6.31402 -3.69284 3.92298
head -0.522468 -1.71352 2.66542
rclavicle -6.08281e-014 3.10104e-014
rhumerus -17.2973 33.0579 -95.8688
rradius 34.3203
rwrist 34.4656
rhand -23.4124 -1.4064
rfingers 7.12502
rthumb 3.04483 -31.3644
lclavicle -6.08281e-014 3.10104e-014
lhumerus -24.0797 -40.5983 95.2346
lradius 43.251
lwrist -5.17825
lhand -5.38075 37.3165
lfingers 7.12502
lthumb 20.4275 66.262
rfemur -42.7101 -1.36533 8.27527
rtibia 73.5547
rfoot -8.39871 2.9393
rtoes -16.5792
lfemur -32.7077 8.56575 -20.4505
ltibia 39.8259
lfoot -9.18712 7.95001
ltoes 0.798563
153
root -0.817563 17.9668 3.93843 2.48426 -41.8179 3.95729
lowerback 21.2491 3.55866 -7.32872
upperback 5.12316 2.65323 -2.81675
thorax -6.45172 1.28831 0.418348
lowerneck -7.08673 -3.30918 -8.48364
upperneck -6.24608 -3.82069 4.22308
head -0.507736 -1.78121 2.75035
rclavicle 9.54166e-015 -1.66979e-014
rhumerus -17.9209 31.9821 -96.133
rradius 35.4519
rwrist 41.7541
rhand -23.9984 -3.45785
rfingers 7.12502
rthumb 2.47895 -33.4232
lclavicle 9.54166e-015 -1.66979e-014
lhumerus -23.9875 -40.5172 95.2543
lradius 43.5175
lwrist -4.32472
lhand -5.11028 37.4482
lfingers 7.12502
lthumb 20.6875 66.3656
rfemur -43.3216 -1.56128 8.48051
rtibia 72.7763
rfoot -9.38456 0.733364
rtoes -15.9365
lfemur -32.8457 8.22759 -20.0391
ltibia 39.7379
lfoot -9.24366 8.04327
ltoes 0.42158
154
root -0.845155 17.9732 3.96441 3.06202 -41.5667 3.57471
lowerback 21.2669 3.62654 -7.12983
upperback 5.10991 2.79453 -2.68972
thorax -6.48246 1.35661 0.404589
lowerneck -6.9401 -3.36236 -8.50244
upperneck -6.21608 -3.8908 4.59813
head -0.508803 -1.81789 2.88148
rclavicle 3.93594e-014 1.27222e-014
rhumerus -18.7085 30.6144 -96.2128
rradius 37.2998
rwrist 47.3952
rhand -22.6776 -5.07925
rfingers 7.12502
rthumb 3.75442 -35.0259
lclavicle 3.93594e-014 1.27222e-014
lhumerus -24.0152 -40.3111 95.39
lradius 43.7564
lwrist -3.82201
lhand -7.46039 37.6968
lfingers 7.12502
lthumb 18.428 66.8439
rfemur -43.9399 -1.50227 8.50607
rtibia 71.807
rfoot -10.2292 -1.33404
rtoes -15.3409
lfemur -33.0654 8.05987 -19.7775
ltibia 39.6546
lfoot -9.23174 8.13425
ltoes -0.315673
155
root -0.875507 17.9956 3.99293 3.52043 -41.4029 3.37905
lowerback 21.1378 3.71298 -7.06671
upperback 5.09672 2.94011 -2.62723
thorax -6.43884 1.42692 0.402849
lowerneck -6.7244 -3.42135 -8.45116
upperneck -6.19467 -3.97929 4.95397
head -0.524759 -1.86599 2.99431
rclavicle 1.72943e-014 -1.82882e-014
rhumerus -19.3664 29.4877 -96.2412
rradius 39.0975
rwrist 50.5473
rhand -20.5629 -4.87812
rfingers 7.12502
rthumb 5.79638 -34.7788
lclavicle 1.72943e-014 -1.82882e-014
lhumerus -24.0005 -39.9177 95.4249
lradius 43.9212
lwrist -4.0003
lhand -7.00722 37.2758
lfingers 7.12502
lthumb 18.8639 66.3811
rfemur -44.4016 -1.17337 8.28439
rtibia 70.5822
rfoot -10.7588 -3.00257
rtoes -14.7375
lfemur -33.209 7.91981 -19.6623
ltibia 39.5456
lfoot -9.28743 8.26167
ltoes -0.702521
156
root -0.907912 18.0167 4.02269 3.84193 -41.2242 3.2495
lowerback 20.9956 3.76239 -7.04065
upperback 5.13152 3.03115 -2.57797
thorax -6.33353 1.46878 0.425225
lowerneck -6.57586 -3.47808 -8.34598
upperneck -6.13176 -4.06453 5.25308
head -0.51834 -1.91361 3.07635
rclavicle 2.84262e-014 2.66371e-014
rhumerus -19.6686 29.1965 -96.3614
rradius 40.2966
rwrist 50.5657
rhand -17.7621 -4.05888
rfingers 7.12502
rthumb 8.49992 -33.8678
lclavicle 2.84262e-014 2.66371e-014
lhumerus -23.9736 -39.509 95.4303
lradius 44.0487
lwrist -4.27525
lhand -6.79099 36.7952
lfingers 7.12502
lthumb 19.0718 65.8801
rfemur -44.6675 -0.832711 7.96217
rtibia 69.2036
rfoot -11.0219 -3.99993
rtoes -14.8193
lfemur -33.2299 7.65337 -19.5396
ltibia 39.4208
lfoot -9.42569 8.38793
ltoes -0.390189
157
root -0.939284 18.0334 4.04938 4.29691 -40.9526 2.90146
lowerback 20.8844 3.68901 -6.8899
upperback 5.14494 2.9944 -2.43246
thorax -6.25969 1.44984 0.514032
lowerneck -6.34973 -3.45823 -8.35093
upperneck -6.15777 -4.04683 5.53164
head -0.559818 -1.90749 3.17802
rclavicle 3.43897e-014 -4.8901e-014
rhumerus -19.7462 29.544 -96.5512
rradius 40.9649
rwrist 49.0485
rhand -15.3015 -3.53035
rfingers 7.12502
rthumb 10.874 -33.2288
lclavicle 3.43897e-014 -4.8901e-014
lhumerus -24.0872 -38.9695 95.5462
lradius 44.178
lwrist -4.393
lhand -6.77259 36.481
lfingers 7.12502
lthumb 19.0895 65.5642
rfemur -44.8212 -0.45377 7.79297
rtibia 67.6653
rfoot -11.0394 -4.54266
rtoes -15.2382
lfemur -33.2186 7.27572 -19.2007
ltibia 39.1901
lfoot -9.53161 8.56619
ltoes 0.0419416
